<svg width="35" height="35" viewBox="0 0 35 35" fill="none" xmlns="http://www.w3.org/2000/svg">
<path d="M17.4997 0C7.85046 0 0 7.85046 0 17.5C0 27.1498 7.85046 35 17.4997 35C27.1492 35 35 27.1498 35 17.5C34.9997 7.85046 27.149 0 17.4997 0ZM17.4997 33.274C8.80207 33.274 1.72601 26.1979 1.72601 17.5C1.72601 8.80236 8.80207 1.72601 17.4997 1.72601C26.1974 1.72601 33.274 8.80236 33.274 17.5C33.2737 26.1979 26.1974 33.274 17.4997 33.274Z" fill="white"/>
<path d="M22.8938 7.2314H19.0977C19.0891 7.23134 19.0804 7.23172 19.0718 7.23255C15.2392 7.24463 14.7387 9.92081 14.7367 12.2598C14.7313 12.282 14.7286 12.3047 14.7286 12.3274V13.9694H12.1056C12.0294 13.9694 11.9562 13.9998 11.9022 14.0537C11.8483 14.1077 11.818 14.1808 11.818 14.2571V18.3066C11.818 18.3829 11.8483 18.4561 11.9022 18.51C11.9562 18.564 12.0294 18.5943 12.1056 18.5943H14.7286V27.4806C14.7286 27.5569 14.7589 27.6301 14.8129 27.6841C14.8668 27.738 14.94 27.7683 15.0163 27.7683H18.8443C18.9206 27.7683 18.9937 27.738 19.0477 27.6841C19.1016 27.6301 19.1319 27.5569 19.1319 27.4806V18.5946H22.8935C22.9698 18.5946 23.0429 18.5643 23.0969 18.5103C23.1508 18.4564 23.1812 18.3832 23.1812 18.3069V14.2574C23.1812 14.1811 23.1508 14.1079 23.0969 14.054C23.0429 14 22.9698 13.9697 22.8935 13.9697H18.8443V11.793H22.8935C22.9698 11.793 23.0429 11.7626 23.0969 11.7087C23.1508 11.6547 23.1812 11.5816 23.1812 11.5053V7.51907C23.1812 7.4813 23.1738 7.4439 23.1594 7.409C23.1449 7.3741 23.1238 7.34239 23.0971 7.31567C23.0704 7.28896 23.0387 7.26776 23.0038 7.2533C22.9689 7.23884 22.9315 7.2314 22.8938 7.2314Z" fill="white"/>
</svg>
