<svg width="35" height="35" viewBox="0 0 35 35" fill="none" xmlns="http://www.w3.org/2000/svg">
<path d="M11.6681 17.5C11.6681 14.2785 14.279 11.6662 17.5007 11.6662C20.7224 11.6662 23.3347 14.2785 23.3347 17.5C23.3347 20.7215 20.7224 23.3338 17.5007 23.3338C14.279 23.3338 11.6681 20.7215 11.6681 17.5ZM8.51428 17.5C8.51428 22.463 12.5375 26.4861 17.5007 26.4861C22.464 26.4861 26.4871 22.463 26.4871 17.5C26.4871 12.537 22.464 8.51393 17.5007 8.51393C12.5375 8.51393 8.51428 12.537 8.51428 17.5ZM24.7427 8.15771C24.7427 9.31684 25.6828 10.2583 26.8434 10.2583C28.0025 10.2583 28.944 9.31684 28.944 8.15771C28.944 6.99859 28.004 6.05856 26.8434 6.05856C25.6828 6.05856 24.7427 6.99859 24.7427 8.15771ZM10.4297 31.7445C8.72349 31.6668 7.79615 31.3827 7.17981 31.1424C6.36274 30.8243 5.78032 30.4455 5.16681 29.8334C4.55471 29.2213 4.17444 28.6389 3.85779 27.8219C3.61747 27.2056 3.33333 26.2783 3.25558 24.5721C3.17077 22.7274 3.1538 22.1733 3.1538 17.5C3.1538 12.8267 3.17218 12.274 3.25558 10.4279C3.33333 8.72173 3.61889 7.79584 3.85779 7.17811C4.17586 6.36107 4.55471 5.77868 5.16681 5.16519C5.77891 4.55311 6.36132 4.17286 7.17981 3.85622C7.79615 3.61591 8.72349 3.33178 10.4297 3.25404C12.2745 3.16922 12.8287 3.15226 17.5007 3.15226C22.1742 3.15226 22.7269 3.17064 24.5731 3.25404C26.2793 3.33178 27.2053 3.61733 27.823 3.85622C28.6401 4.17286 29.2225 4.55311 29.836 5.16519C30.4481 5.77726 30.827 6.36107 31.145 7.17811C31.3854 7.79443 31.6695 8.72173 31.7472 10.4279C31.8321 12.274 31.849 12.8267 31.849 17.5C31.849 22.1719 31.8321 22.726 31.7472 24.5721C31.6695 26.2783 31.3839 27.2056 31.145 27.8219C30.827 28.6389 30.4481 29.2213 29.836 29.8334C29.2239 30.4455 28.6401 30.8243 27.823 31.1424C27.2067 31.3827 26.2793 31.6668 24.5731 31.7445C22.7283 31.8294 22.1742 31.8463 17.5007 31.8463C12.8287 31.8463 12.2745 31.8294 10.4297 31.7445ZM10.2856 0.106018C8.42239 0.190832 7.15013 0.486268 6.0376 0.918821C4.88691 1.36551 3.91151 1.96486 2.93752 2.9374C1.96494 3.90994 1.36556 4.8853 0.918858 6.03736C0.486288 7.14984 0.19084 8.42205 0.106022 10.2851C0.0197908 12.151 0 12.7476 0 17.5C0 22.2524 0.0197908 22.849 0.106022 24.7149C0.19084 26.5779 0.486288 27.8502 0.918858 28.9626C1.36556 30.1133 1.96353 31.0901 2.93752 32.0626C3.91009 33.0351 4.8855 33.6331 6.0376 34.0812C7.15154 34.5137 8.42239 34.8092 10.2856 34.894C12.153 34.9788 12.7481 35 17.5007 35C22.2547 35 22.8499 34.9802 24.7159 34.894C26.579 34.8092 27.8513 34.5137 28.9638 34.0812C30.1145 33.6331 31.0899 33.0351 32.0639 32.0626C33.0365 31.0901 33.6344 30.1133 34.0826 28.9626C34.5151 27.8502 34.812 26.5779 34.8954 24.7149C34.9802 22.8475 35 22.2524 35 17.5C35 12.7476 34.9802 12.151 34.8954 10.2851C34.8106 8.42205 34.5151 7.14984 34.0826 6.03736C33.6344 4.88671 33.0365 3.91135 32.0639 2.9374C31.0913 1.96486 30.1145 1.36551 28.9652 0.918821C27.8513 0.486268 26.579 0.189418 24.7173 0.106018C22.8513 0.0212036 22.2547 0 17.5021 0C12.7481 0 12.153 0.01979 10.2856 0.106018Z" fill="white"/>
</svg>
